<?xml version="1.0" standalone="no"?>
<!DOCTYPE svg PUBLIC "-//W3C//DTD SVG 20010904//EN"
 "http://www.w3.org/TR/2001/REC-SVG-20010904/DTD/svg10.dtd">
<svg version="1.0" xmlns="http://www.w3.org/2000/svg"
 width="700.000000pt" height="700.000000pt" viewBox="0 0 700.000000 700.000000"
 preserveAspectRatio="xMidYMid meet">
<metadata>
Created by potrace 1.11, written by Peter Selinger 2001-2013
</metadata>
<g transform="translate(0.000000,700.000000) scale(0.100000,-0.100000)"
fill="#000000" stroke="none">
<path d="M3260 6102 c0 -2 6 -9 13 -16 6 -7 66 -71 132 -141 66 -71 155 -165
197 -209 l76 -81 -829 -5 -830 -5 122 -127 121 -128 541 0 541 0 359 -181
c348 -175 360 -180 377 -163 9 11 103 139 207 285 l191 266 -61 12 c-85 18
-137 46 -266 148 -282 222 -401 282 -647 328 -60 11 -244 24 -244 17z"/>
<path d="M4395 5269 c-110 -154 -201 -283 -202 -287 -3 -7 96 -59 697 -364
195 -100 419 -214 497 -254 l143 -74 15 29 c23 46 94 100 154 117 51 15 141
15 182 -1 17 -6 34 14 194 233 37 52 64 97 59 101 -5 5 -160 85 -344 178 -184
94 -527 268 -761 387 -235 119 -429 216 -430 215 -2 0 -94 -126 -204 -280z"/>
<path d="M1686 5290 c-26 -5 -22 -10 96 -125 l123 -120 573 1 c314 0 572 -1
572 -4 0 -2 -22 -26 -48 -53 l-48 -48 -815 0 c-448 0 -818 -1 -824 -1 -5 0 45
-55 113 -122 l122 -123 575 1 c316 1 575 -2 575 -5 0 -3 -22 -27 -49 -53 l-48
-48 -821 0 -821 0 122 -122 122 -121 578 0 c317 0 577 -2 577 -4 0 -1 -22 -25
-49 -52 l-49 -49 -827 0 c-454 0 -829 -2 -832 -5 -2 -3 50 -60 116 -126 l121
-121 2354 0 2355 0 -25 44 c-13 24 -28 70 -32 102 l-7 58 -90 46 c-49 26 -324
165 -610 310 -286 144 -729 369 -985 499 l-465 236 -811 5 c-445 3 -823 3
-838 0z"/>
<path d="M6152 4506 l-130 -184 25 -50 c29 -59 33 -143 10 -208 l-15 -40 344
-172 c189 -95 348 -172 352 -172 15 0 59 77 81 141 41 120 38 308 -6 419 -47
119 -130 230 -217 289 -48 33 -291 161 -305 161 -5 0 -68 -83 -139 -184z"/>
<path d="M5949 3943 c-8 -9 -34 -25 -59 -37 -45 -20 -50 -20 -2544 -21 l-2499
0 -122 -123 -123 -122 1939 0 1939 0 47 -33 c110 -77 230 -109 393 -102 144 6
166 9 320 52 276 78 293 81 445 78 206 -5 299 -36 410 -140 49 -46 51 -47 123
-49 82 -4 174 13 246 44 53 22 186 107 186 118 0 4 -64 40 -143 80 -221 115
-534 272 -539 272 -3 0 -12 -7 -19 -17z"/>
<path d="M1147 3477 c-27 -29 -80 -84 -119 -123 l-69 -71 1583 1 1583 1 25 21
c14 11 70 66 125 122 l100 102 -1590 -1 -1590 0 -48 -52z"/>
<path d="M1428 3060 c-65 -65 -118 -120 -118 -123 0 -2 552 -4 1228 -4 l1227
0 125 123 125 124 -1235 -1 -1235 -1 -117 -118z"/>
<path d="M1786 2703 c-69 -64 -123 -119 -121 -122 2 -4 398 -6 880 -6 l876 1
120 118 c65 66 119 121 119 123 0 1 -394 3 -875 3 l-875 0 -124 -117z"/>
<path d="M2137 2349 c-82 -82 -113 -119 -100 -120 10 -1 245 -2 522 -3 469 -1
506 0 527 17 21 16 56 50 179 176 l49 51 -529 -1 -530 0 -118 -120z"/>
<path d="M2715 1405 c-149 -36 -249 -144 -261 -282 -14 -145 86 -246 286 -288
130 -28 170 -52 170 -105 0 -30 -29 -70 -51 -70 -10 0 -21 -5 -25 -11 -5 -8
-36 -10 -98 -7 -94 5 -185 35 -249 80 -16 11 -30 19 -31 17 -24 -27 -116 -167
-116 -175 0 -31 164 -95 296 -118 191 -32 349 7 449 109 62 63 84 123 82 214
-4 127 -78 193 -283 251 -114 33 -174 66 -174 95 0 25 21 61 43 75 28 17 148
22 206 8 25 -6 73 -23 106 -39 32 -15 62 -26 66 -23 4 2 28 40 55 85 52 90 54
82 -26 123 -122 64 -323 92 -445 61z"/>
<path d="M4528 1405 c-113 -28 -208 -90 -274 -179 -81 -107 -116 -213 -113
-341 4 -163 64 -284 180 -361 83 -56 141 -73 254 -78 155 -7 275 40 382 150
102 106 153 238 148 390 -3 96 -23 166 -68 236 -55 86 -137 146 -242 178 -63
19 -202 21 -267 5z m199 -226 c38 -12 94 -64 119 -110 29 -52 26 -189 -5 -251
-27 -56 -71 -102 -126 -131 -31 -17 -58 -22 -121 -22 -72 0 -85 3 -130 30
-122 76 -144 260 -45 391 72 96 188 131 308 93z"/>
<path d="M6410 1413 c-179 -31 -328 -160 -390 -336 -26 -74 -30 -100 -31 -189
0 -131 38 -231 121 -315 80 -82 182 -123 312 -128 294 -10 522 208 532 508 3
93 -7 147 -43 222 -54 113 -148 192 -271 227 -53 14 -177 21 -230 11z m178
-239 c146 -61 182 -263 73 -409 -71 -95 -204 -131 -308 -85 -98 43 -137 106
-138 220 0 66 4 84 33 140 18 36 49 78 68 94 73 61 185 77 272 40z"/>
<path d="M262 1393 c1 -4 -3 -30 -10 -58 -6 -27 -14 -61 -16 -75 -2 -14 -9
-47 -16 -75 -6 -27 -15 -68 -20 -90 -12 -51 -65 -297 -95 -440 -13 -60 -28
-129 -33 -153 l-10 -43 116 3 116 3 8 30 c4 16 9 41 12 55 2 14 11 55 20 91 8
37 17 78 20 90 22 118 33 112 165 -96 l112 -175 125 0 c97 0 124 3 118 13 -4
6 -26 41 -50 77 -23 36 -71 111 -107 166 l-65 102 64 15 c162 40 248 146 247
302 0 105 -55 184 -163 234 -54 25 -61 26 -298 29 -133 2 -242 0 -240 -5z
m409 -207 c66 -18 72 -111 9 -153 -29 -21 -45 -23 -150 -23 l-117 0 18 83 c11
45 21 87 24 94 4 13 166 12 216 -1z"/>
<path d="M1173 1388 c-1 -7 -27 -134 -58 -283 -31 -148 -58 -279 -61 -290 -2
-11 -19 -94 -38 -185 -19 -90 -33 -167 -31 -170 2 -3 50 -5 107 -4 126 2 133
3 126 10 -3 3 0 32 8 64 7 33 16 74 19 91 9 48 67 344 79 399 5 23 19 93 32
160 11 58 35 177 41 198 5 22 4 22 -109 22 -85 0 -115 -3 -115 -12z"/>
<path d="M3360 1397 c0 -2 -9 -46 -20 -97 -11 -51 -20 -97 -20 -102 0 -4 61
-8 135 -8 135 0 135 0 130 -22 -11 -49 -27 -124 -31 -148 -5 -21 -104 -471
-119 -537 -5 -21 -3 -22 110 -22 111 -1 115 0 120 22 13 56 155 697 155 702 0
3 60 5 133 5 l134 0 11 53 c6 28 13 63 16 77 2 14 7 37 11 53 l7 27 -386 0
c-212 0 -386 -1 -386 -3z"/>
<path d="M5194 1295 l-21 -105 137 0 136 0 -78 -347 c-42 -192 -77 -356 -78
-366 0 -16 10 -17 112 -15 129 3 112 -13 147 148 12 52 32 145 46 205 13 61
26 121 29 135 2 14 12 57 21 95 9 39 19 81 21 95 9 50 7 49 146 52 l133 3 12
60 c7 33 15 75 18 94 3 18 8 37 11 42 3 5 -161 9 -383 9 l-389 0 -20 -105z"/>
<path d="M1589 1383 c-2 -4 -4 -12 -12 -53 -4 -19 -10 -46 -13 -60 -3 -14 -7
-36 -10 -50 -3 -14 -41 -190 -85 -391 -43 -201 -79 -371 -79 -377 0 -8 35 -12
113 -12 l114 0 38 185 38 185 42 0 c33 0 44 -5 53 -22 14 -27 25 -46 116 -198
38 -63 76 -123 84 -132 13 -15 33 -18 134 -18 65 0 118 2 118 5 0 5 -97 168
-195 325 -86 139 -88 143 -67 162 13 11 252 260 387 402 53 56 58 53 -96 52
l-140 -1 -47 -50 c-26 -28 -100 -108 -166 -178 -99 -106 -123 -127 -147 -127
-32 0 -34 7 -18 64 11 41 14 54 29 129 5 27 12 52 14 56 5 8 17 64 20 91 1 13
-18 15 -111 16 -62 0 -114 -1 -114 -3z"/>
</g>
</svg>
