<?xml version="1.0" encoding="utf-8"?>
<!-- Generator: Adobe Illustrator 20.0.0, SVG Export Plug-In . SVG Version: 6.00 Build 0)  -->
<svg version="1.1" id="Layer_1" xmlns="http://www.w3.org/2000/svg" xmlns:xlink="http://www.w3.org/1999/xlink" x="0px" y="0px"
	 viewBox="0 0 100 100" style="enable-background:new 0 0 100 100;" xml:space="preserve">
<style type="text/css">
	.st0{fill:#007847;}
	.st1{fill:#FFD600;}
	.st2{fill:#FDD401;}
</style>
<polygon id="bakgrunn" class="st0" points="0,0 100,0 100,100 0,100 "/>
<path id="toto" class="st1" d="M58,77.9h-3.1L53,86.5h-2.8l1.9-8.6h-3.2l0.5-2.5h9.1L58,77.9z M70,80.4c0,3.4-2.5,6.3-6.1,6.3
	c-3.1,0-5.4-2.1-5.4-5.2c0-3.4,2.5-6.3,6.1-6.3C67.8,75.1,70,77.3,70,80.4z M61.1,81.3c0,1.8,1.1,2.9,2.9,2.9c1.9,0,3.3-1.6,3.3-3.5
	c0-1.8-1.1-2.9-2.9-2.9C62.5,77.8,61.1,79.4,61.1,81.3z M79.9,77.9h-3.1l-1.9,8.6h-2.8l1.9-8.6h-3.3l0.5-2.5h9.1L79.9,77.9z
	 M91.9,80.4c0,3.4-2.5,6.3-6.1,6.3c-3.1,0-5.4-2.1-5.4-5.2c0-3.4,2.5-6.3,6.1-6.3C89.6,75.1,91.9,77.3,91.9,80.4z M83,81.3
	c0,1.8,1.1,2.9,2.9,2.9c1.9,0,3.2-1.6,3.2-3.5c0-1.8-1.1-2.9-2.9-2.9C84.4,77.8,83,79.4,83,81.3z"/>
<path id="riks" class="st2" d="M17.4,75.4c2.4,0,3.8,1.5,3.8,3.1s-0.9,3.4-3.8,3.8l2.8,4.3h-3l-2.6-4.1h-0.4l-0.9,4.1h-2.8l2.4-11.1
	C12.9,75.4,17.4,75.4,17.4,75.4z M15.1,77.8L14.6,80h2c1.4,0,1.8-0.6,1.8-1.3s-0.5-1-1.4-1H15.1z M24,86.5h-2.8l2.4-11.1h2.6
	L24,86.5z M30.3,79.8H31l3.9-4.3h3.4l-5.4,5.6l3.4,5.5h-3l-2.6-4.4h-0.9l-0.9,4.4h-2.8l2.4-11.1h2.7L30.3,79.8z M46.6,78.6
	c-1-0.8-2.5-1-3.3-1c-1.1,0-1.8,0.5-1.8,1c0,0.8,0.9,0.9,1.8,1.1l0.5,0.1c2,0.4,3.2,1.4,3.2,3c0,2.4-2,3.9-4.9,3.9
	c-1.6,0-3.8-0.5-5-1.5l1.5-2.1c1.1,0.9,2.5,1.3,3.6,1.3c1,0,1.8-0.4,1.8-1.1c0-0.6-0.6-0.9-1.9-1.1L41.8,82c-1.9-0.4-3.1-1.4-3.1-3
	c0-2.1,1.6-3.9,4.6-3.9c1.3,0,3,0.3,4.6,1.4L46.6,78.6z"/>
<path id="hest" class="st2" d="M33.5,25.3h19.6l-5-5.4c9.3,0,10.4,5.9,14.5,5.9l-4.9,6.8l-8.5-4.3H36.4L33.5,25.3z M33.5,65.6H46
	l2.9-2.9H36.4L33.5,65.6z M29.3,61.5h20.9l2.9-2.9H32.3L29.3,61.5z M25.1,57.3h29.1l2.9-2.9H28L25.1,57.3z M21,53.1h37.5l2.9-2.9
	H23.9L21,53.1z M75,41.3c0.5-1.1,1.6-1.9,3-1.9c0.5,0,1,0.1,1.4,0.3l2.9-4L64,26.4l-4.9,6.8L75,41.3z M86.6,37.9
	c-0.5-0.3-2.7-1.4-2.7-1.4l-3.1,4.4c0.4,0.5,0.6,1.3,0.6,2c0,0.5-0.1,1-0.4,1.5l8.3,4.1c0.3-0.3,0.4-0.6,0.6-1
	C91.5,43.9,90.1,39.6,86.6,37.9z M78,46H19.8l-2.9,2.9h45.8c0,0,1.8,1.6,4.6,1.6c4.3,0,5.9-1.6,9.1-1.6c2.9,0,4.4,0.5,5.9,2.2
	c2.3,0.4,4.5-0.4,6.1-1.9l-8.1-4.1C79.6,45.8,78.9,46,78,46z M16.8,41.9l2.9,2.9h55.6c-0.5-0.6-0.8-1.3-0.8-2.1c0-0.1,0-0.1,0-0.3
	l-25.6-13H29.3l2.9,2.9h13.7l-1.3,1.3H25.1l2.9,2.9h13.8l-1.3,1.3H21l2.9,2.9h13.8l-1.3,1.3H16.8V41.9z"/>
</svg>
