<?xml version="1.0" encoding="utf-8"?>
<!-- Generator: Adobe Illustrator 20.0.0, SVG Export Plug-In . SVG Version: 6.00 Build 0)  -->
<svg version="1.1" id="Layer_1" xmlns="http://www.w3.org/2000/svg" xmlns:xlink="http://www.w3.org/1999/xlink" x="0px" y="0px"
	 viewBox="0 0 90.8 98" style="enable-background:new 0 0 90.8 98;" xml:space="preserve">
<style type="text/css">
	.st0{fill:#007847;}
	.st1{fill:#FFD600;}
	.st2{fill:#FDD401;}
</style>
<g>
	<polygon id="bakgrunn" class="st0" points="0,0 90.8,0 90.8,84.8 0,98 	"/>
	<path id="toto" class="st1" d="M52.7,70.7h-2.8l-1.7,7.8h-2.5l1.7-7.8h-3l0.5-2.3h8.3L52.7,70.7z M63.6,73c0,3.1-2.3,5.7-5.6,5.7
		c-2.8,0-4.9-1.9-4.9-4.8c0-3.1,2.3-5.7,5.6-5.7C61.5,68.2,63.6,70.1,63.6,73z M55.5,73.8c0,1.6,1,2.6,2.6,2.6c1.7,0,3-1.5,3-3.2
		c0-1.6-1-2.6-2.6-2.6C56.7,70.6,55.5,72.1,55.5,73.8z M72.5,70.7h-2.8L68,78.5h-2.5l1.7-7.8h-3l0.5-2.3H73L72.5,70.7z M83.4,73
		c0,3.1-2.3,5.7-5.6,5.7c-2.8,0-4.9-1.9-4.9-4.8c0-3.1,2.3-5.7,5.6-5.7C81.4,68.2,83.4,70.1,83.4,73z M75.4,73.8
		c0,1.6,1,2.6,2.6,2.6c1.7,0,3-1.5,3-3.2c0-1.6-1-2.6-2.6-2.6C76.6,70.6,75.4,72.1,75.4,73.8z"/>
	<path id="riks" class="st2" d="M15.8,68.4c2.2,0,3.4,1.4,3.4,2.8s-0.8,3.1-3.4,3.4l2.5,3.9h-2.7l-2.4-3.7h-0.3L12,78.5H9.5
		l2.2-10.1C11.7,68.4,15.8,68.4,15.8,68.4z M13.7,70.6l-0.5,2h1.8c1.2,0,1.6-0.6,1.6-1.1s-0.5-0.9-1.2-0.9H13.7z M21.8,78.5h-2.5
		l2.2-10.1h2.4L21.8,78.5z M27.5,72.4h0.7l3.5-3.9h3.1l-4.9,5.1l3.1,5h-2.7l-2.4-4H27l-0.8,4h-2.5l2.2-10.1h2.5L27.5,72.4z
		 M42.3,71.4c-0.9-0.7-2.3-0.9-3-0.9c-1,0-1.6,0.5-1.6,0.9c0,0.7,0.8,0.8,1.6,1l0.5,0.1c1.8,0.3,3,1.2,3,2.7c0,2.2-1.8,3.5-4.4,3.5
		c-1.5,0-3.4-0.5-4.5-1.4l1.4-1.9c1,0.8,2.3,1.1,3.3,1.1c0.9,0,1.6-0.3,1.6-1c0-0.6-0.6-0.8-1.7-1l-0.5-0.1
		c-1.7-0.3-2.8-1.2-2.8-2.7c0-1.9,1.5-3.5,4.2-3.5c1.1,0,2.7,0.2,4.2,1.2L42.3,71.4z"/>
	<path id="hest" class="st2" d="M30.4,22.9h17.8L43.7,18c8.4,0,9.4,5.3,13.2,5.3l-4.4,6.1l-7.7-3.9H33L30.4,22.9z M30.4,59.6h11.3
		l2.6-2.6H33L30.4,59.6z M26.6,55.8h19l2.6-2.6H29.3L26.6,55.8z M22.8,52h26.4l2.6-2.6H25.4L22.8,52z M19.1,48.2h34l2.6-2.6h-34
		L19.1,48.2z M68.1,37.5c0.5-1,1.5-1.7,2.7-1.7c0.5,0,0.9,0.1,1.2,0.2l2.6-3.6l-16.6-8.4l-4.4,6.1L68.1,37.5z M78.6,34.4
		c-0.5-0.2-2.5-1.2-2.5-1.2l-2.8,4c0.3,0.5,0.6,1.1,0.6,1.8c0,0.5-0.1,0.9-0.3,1.4L81,44c0.2-0.2,0.3-0.6,0.6-0.9
		C83.1,39.8,81.8,36,78.6,34.4z M70.8,41.8H17.9l-2.6,2.6h41.5c0,0,1.6,1.5,4.2,1.5c3.9,0,5.3-1.5,8.3-1.5c2.6,0,4,0.5,5.3,2
		c2,0.3,4.1-0.3,5.6-1.7L72.9,41C72.3,41.5,71.6,41.8,70.8,41.8z M15.2,38l2.6,2.6h50.5c-0.5-0.6-0.7-1.1-0.7-1.9c0-0.1,0-0.1,0-0.2
		L44.4,26.7H26.6l2.6,2.6h12.5l-1.1,1.1H22.8l2.6,2.6h12.5l-1.1,1.1H19.1l2.6,2.6h12.5L33,37.9H15.2V38z"/>
</g>
</svg>
