<?xml version="1.0" encoding="utf-8"?>
<svg version="1.1" id="Layer_1" xmlns="http://www.w3.org/2000/svg" xmlns:xlink="http://www.w3.org/1999/xlink" x="0px" y="0px"
	 viewBox="0 0 75 60" enable-background="new 0 0 75 60" xml:space="preserve" width="75" height="60">
<g>
	<rect x="15" y="0" fill="#007549" width="60" height="60"/>
	<g>
		<g>
			<path fill="#FFD700" d="M23.4,47.4l-0.3,1.4h1.2c0.8,0,1-0.4,1-0.8c0-0.4-0.3-0.6-0.8-0.6H23.4z M24.7,46c1.4,0,2.2,0.9,2.2,1.9
				c0,1-0.5,2-2.2,2.2l1.7,2.5h-1.8L23,50.1h-0.2l-0.5,2.5h-1.6l1.4-6.6H24.7z"/>
		</g>
		<polygon fill="#FFD700" points="29,52.5 27.4,52.5 28.8,46 30.4,46 		"/>
		<polygon fill="#FFD700" points="33.2,48.5 33.7,48.5 36.3,46 38.1,46 34.8,49.3 36.8,52.5 35,52.5 33.5,49.9 32.9,49.9 32.4,52.5 
			30.8,52.5 32.2,46 33.8,46 		"/>
		<g>
			<path fill="#FFD700" d="M43,47.9c-0.6-0.5-1.5-0.6-2-0.6c-0.7,0-1,0.3-1,0.6c0,0.4,0.5,0.5,1,0.6l0.3,0.1
				c1.2,0.2,1.9,0.8,1.9,1.8c0,1.4-1.2,2.3-2.9,2.3c-1,0-2.2-0.3-2.9-0.9l0.9-1.2c0.7,0.5,1.5,0.7,2.2,0.7c0.6,0,1-0.2,1-0.6
				c0-0.4-0.4-0.5-1.1-0.6l-0.3-0.1c-1.1-0.2-1.8-0.8-1.8-1.8c0-1.3,1-2.3,2.7-2.3c0.8,0,1.8,0.1,2.8,0.8L43,47.9z"/>
			<path fill="#FFD700" d="M51.5,49.5c0,1,0.7,1.7,1.7,1.7c1.1,0,1.9-1,1.9-2.1c0-1-0.7-1.7-1.7-1.7C52.3,47.4,51.5,48.3,51.5,49.5
				 M56.8,48.9c0,2-1.5,3.7-3.7,3.7c-1.9,0-3.2-1.2-3.2-3.1c0-2,1.5-3.7,3.7-3.7C55.4,45.9,56.8,47.1,56.8,48.9"/>
			<path fill="#FFD700" d="M64.3,49.5c0,1,0.7,1.7,1.7,1.7c1.1,0,1.9-1,1.9-2.1c0-1-0.7-1.7-1.7-1.7C65.1,47.4,64.3,48.3,64.3,49.5
				 M69.5,49c0,2-1.5,3.7-3.7,3.7c-1.9,0-3.2-1.2-3.2-3.1c0-2,1.5-3.7,3.7-3.7C68.2,45.9,69.5,47.1,69.5,49"/>
		</g>
		<polygon fill="#FFD700" points="62.6,47.4 60.7,47.4 59.6,52.5 58,52.5 59.1,47.4 57.3,47.4 57.6,46 62.9,46 		"/>
		<polygon fill="#FFD700" points="49.8,47.4 48,47.4 46.9,52.5 45.3,52.5 46.4,47.4 44.5,47.4 44.8,46 50.1,46 		"/>
		<polygon fill="#FFD700" points="32.4,39.4 40.6,39.4 42.5,37.5 34.3,37.5 		"/>
		<polygon fill="#FFD700" points="29.7,36.7 43.3,36.7 45.2,34.7 31.6,34.7 		"/>
		<polygon fill="#FFD700" points="26.9,33.9 46,33.9 48,32 28.9,32 		"/>
		<polygon fill="#FFD700" points="24.2,31.2 48.8,31.2 50.7,29.3 26.1,29.3 		"/>
		<g>
			<path fill="#FFD700" d="M34.3,14.8h9l5.1,2.6l3.1-4.2h0c-2.7,0-4-3.8-9.5-3.8l3.3,3.5H32.4L34.3,14.8z"/>
			<path fill="#FFD700" d="M61.6,26.6H23.4l-1.9,1.9h30c0,0,1.3,1.1,2.7,1.1c2.7,0,4.1-1.1,6.3-1.1c1.9,0,2.9,0.4,3.8,1.5
				c2.5,0.4,4-1.2,4-1.2L63,26C62.6,26.4,62.1,26.6,61.6,26.6"/>
			<path fill="#FFD700" d="M21.5,23.8l1.9,1.9h36.5c-0.3-0.4-0.5-0.8-0.5-1.4c0-0.1,0-0.1,0-0.2l-16.9-8.6H29.7l1.9,1.9h9l-0.8,0.8
				H26.9l1.9,1.9h9L37,21.1H24.2l1.9,1.9h9l-0.8,0.8H21.5z"/>
			<path fill="#FFD700" d="M59.8,23.2c0.4-0.6,1.1-1,1.8-1c0.3,0,0.6,0.1,0.9,0.2l1.9-2.6c-3.3-1.7-8.2-4.1-12-6.1l-3.1,4.2
				L59.8,23.2z"/>
			<path fill="#FFD700" d="M67.2,21.2c-0.4-0.2-1.1-0.5-1.8-0.9l-2.1,2.8c0.3,0.4,0.4,0.8,0.4,1.3c0,0.3,0,0.5-0.1,0.7l5.4,2.7
				c0.1-0.1,0.2-0.3,0.2-0.4C70.5,25.1,69.5,22.3,67.2,21.2"/>
		</g>
	</g>
</g>
<rect y="0" fill="#231F20" width="15" height="60"/>
<g>
	<path fill="#666666" d="M3.6,13.4h7.8v2.6c0,0.8-0.2,1.5-0.5,1.9c-0.4,0.5-0.9,0.7-1.6,0.7c-0.3,0-0.7-0.1-0.9-0.3
		c-0.3-0.2-0.5-0.5-0.6-0.9c-0.1,0.5-0.3,0.8-0.7,1.1c-0.4,0.3-0.8,0.4-1.3,0.4c-0.7,0-1.3-0.2-1.6-0.7c-0.4-0.5-0.6-1.1-0.6-1.9
		V13.4z M7.3,14.4H4.4v1.8c0,0.5,0.1,0.9,0.4,1.1c0.2,0.3,0.6,0.4,1,0.4c0.5,0,0.8-0.1,1.1-0.3c0.3-0.2,0.4-0.6,0.4-1V14.4z
		 M8.1,14.4v1.7c0,0.4,0.1,0.7,0.3,1c0.2,0.2,0.5,0.4,0.9,0.4c0.4,0,0.7-0.1,0.9-0.4c0.2-0.3,0.3-0.7,0.3-1.2v-1.5H8.1z"/>
	<path fill="#666666" d="M7.2,27.8v-3.6H4.4v4.1H3.6v-5.2h7.8v5.1h-0.8v-4.1H8v3.6H7.2z"/>
	<path fill="#666666" d="M10.6,37.6v-2.5h-7V34h7v-2.5h0.8v6.1H10.6z"/>
	<path fill="#666666" d="M5.6,45.7v-3.3l-2-0.7v-1.1l7.8,3v0.9l-7.8,3v-1.1L5.6,45.7z M6.5,42.7v2.6l3.6-1.3v0L6.5,42.7z"/>
</g>
</svg>
