<?xml version="1.0" encoding="utf-8"?>
<!-- Generator: Adobe Illustrator 20.0.0, SVG Export Plug-In . SVG Version: 6.00 Build 0)  -->
<svg version="1.1" id="Layer_1" xmlns="http://www.w3.org/2000/svg" xmlns:xlink="http://www.w3.org/1999/xlink" x="0px" y="0px"
	 viewBox="0 0 32 32" style="enable-background:new 0 0 32 32;" xml:space="preserve">
<style type="text/css">
	.st0{fill:#FFFFFF;}
</style>
<g>
	<path class="st0" d="M15.7,28.4C8.8,28.4,3.3,22.8,3.3,16c0-6.8,5.6-12.4,12.4-12.4S28.1,9.2,28.1,16
		C28.1,22.8,22.5,28.4,15.7,28.4z"/>
	<path d="M15.7,4.1c6.6,0,11.9,5.3,11.9,11.9s-5.3,11.9-11.9,11.9S3.8,22.6,3.8,16S9.1,4.1,15.7,4.1 M15.7,3.1
		C8.5,3.1,2.8,8.9,2.8,16s5.8,12.9,12.9,12.9S28.6,23.1,28.6,16S22.8,3.1,15.7,3.1L15.7,3.1z"/>
</g>
</svg>
