<?xml version="1.0" encoding="utf-8"?>
<!-- Generator: Adobe Illustrator 20.1.0, SVG Export Plug-In . SVG Version: 6.00 Build 0)  -->
<svg version="1.1" id="Layer_1" xmlns="http://www.w3.org/2000/svg" xmlns:xlink="http://www.w3.org/1999/xlink" x="0px" y="0px"
	 viewBox="0 0 32 32" style="enable-background:new 0 0 32 32;" xml:space="preserve">
<style type="text/css">
	.st0{fill:#009852;}
</style>
<g>
	<path class="st0" d="M7,19c1.7,0,3-1.3,3-3s-1.3-3-3-3s-3,1.3-3,3S5.3,19,7,19"/>
	<path class="st0" d="M16,19c1.7,0,3-1.3,3-3s-1.3-3-3-3s-3,1.3-3,3S14.3,19,16,19"/>
	<path class="st0" d="M25,19c1.7,0,3-1.3,3-3s-1.3-3-3-3s-3,1.3-3,3S23.3,19,25,19"/>
</g>
</svg>
