<?xml version="1.0" encoding="utf-8"?>
<!-- Generator: Adobe Illustrator 20.0.0, SVG Export Plug-In . SVG Version: 6.00 Build 0)  -->
<svg version="1.1" id="Layer_1" xmlns="http://www.w3.org/2000/svg" xmlns:xlink="http://www.w3.org/1999/xlink" x="0px" y="0px"
	 viewBox="0 0 32 32" style="enable-background:new 0 0 32 32;" xml:space="preserve">
<style type="text/css">
	.st0{fill:#009852;}
</style>
<g>
	<path class="st0" d="M13,7c0,1.7,1.3,3,3,3c1.7,0,3-1.3,3-3c0-1.7-1.3-3-3-3C14.3,4,13,5.3,13,7"/>
	<path class="st0" d="M13,16c0,1.7,1.3,3,3,3c1.7,0,3-1.3,3-3s-1.3-3-3-3C14.3,13,13,14.3,13,16"/>
	<path class="st0" d="M13,25c0,1.7,1.3,3,3,3c1.7,0,3-1.3,3-3s-1.3-3-3-3C14.3,22,13,23.3,13,25"/>
</g>
</svg>
