<?xml version="1.0" encoding="utf-8"?>
<svg version="1.1" xmlns="http://www.w3.org/2000/svg" xmlns:xlink="http://www.w3.org/1999/xlink" x="0px" y="0px"
	 viewBox="0 0 100 50" enable-background="new 0 0 100 50" xml:space="preserve" width="100" height="50">
<g>
	<polygon fill="#FFFFFF" points="26.1,18.3 22.6,18.3 18.3,28.4 16.9,18.3 13.7,18.3 15.8,31.7 19.6,31.7 	"/>
	<polygon fill="#FFFFFF" points="31,18.3 27.8,18.3 24.9,31.7 28.2,31.7 	"/>
	<polygon fill="#FFFFFF" points="46.1,18.3 42.9,18.3 41.1,26.7 36.9,18.3 33.9,18.3 31.1,31.7 34.3,31.7 36.1,23.3 40.3,31.7 
		43.3,31.7 	"/>
	<polygon fill="#FFFFFF" points="61.2,18.3 58,18.3 56.2,26.7 52,18.3 49,18.3 46.2,31.7 49.4,31.7 51.2,23.3 55.4,31.7 58.4,31.7 	
		"/>
	<polygon fill="#FFFFFF" points="72.7,23.5 66.3,23.5 66.8,21.2 73.5,21.2 74.1,18.3 64.1,18.3 61.3,31.7 71.3,31.7 71.9,28.8 
		65.2,28.8 65.7,26.4 72.1,26.4 	"/>
	<g>
		<path fill="#FFFFFF" d="M83.1,22.4c0,0.8-0.5,1.6-2.1,1.6h-2.4l0.6-2.8h2.2C82.5,21.2,83.1,21.7,83.1,22.4 M86.3,22.1
			c0-2-1.6-3.8-4.5-3.8h-5.3l-2.8,13.3H77l1.1-5h0.4l3.1,5h3.7l-3.4-5C85.3,26.2,86.3,24.1,86.3,22.1"/>
	</g>
</g>
</svg>
