<?xml version="1.0" encoding="utf-8"?>
<svg version="1.1" xmlns="http://www.w3.org/2000/svg" xmlns:xlink="http://www.w3.org/1999/xlink" x="0px" y="0px"
	 viewBox="0 0 100 50" enable-background="new 0 0 100 50" xml:space="preserve" width="100" height="50">
<g>
	<g>
		<path fill="#FFFFFF" d="M50.7,25.9c2.2,0,3.8,1.5,3.8,3.7c0,2.5-1.7,4.5-4.3,4.5c-2.3,0-3.8-1.6-3.8-3.8
			C46.5,28,48.2,25.9,50.7,25.9 M52.4,20.2l8.3-9.9h-8.2l-9,11.3c-2.8,3.5-3.8,6.6-3.8,9.3c0,5.7,4.7,9.4,10.3,9.4
			c6.7,0,11.3-5,11.3-11.1C61.3,23.8,57.6,20.5,52.4,20.2"/>
	</g>
	<polygon fill="#FFFFFF" points="44.3,10.3 36.7,10.3 25.8,33.5 22.8,10.3 15.7,10.3 20.5,39.7 28.9,39.7 	"/>
	<g>
		<path fill="#FFFFFF" d="M84.1,10.3H68l-3.9,16.9h7.6c3.8,0,4.9,1.6,4.5,3.7c-0.3,1.9-1.9,3.2-4.9,3.2c-2.4,0-4.6-0.8-6.2-2.5
			l-4.3,3.7c2.1,2.7,6,5.1,10.2,5.1c6.2,0,10.9-2.8,12.2-8.9c1.2-5.6-2.5-10.2-9.4-10.2h-2.3l1.1-4.6h10.1L84.1,10.3z"/>
	</g>
</g>
</svg>
