<?xml version="1.0" encoding="utf-8"?>
<svg version="1.1" xmlns="http://www.w3.org/2000/svg" xmlns:xlink="http://www.w3.org/1999/xlink" x="0px" y="0px"
	 viewBox="0 0 100 50" enable-background="new 0 0 100 50" xml:space="preserve" width="100" height="50">
<g>
	<polygon fill="#FFFFFF" points="48.9,11.2 41.2,11.2 30.3,34.5 27.4,11.2 20.2,11.2 25,40.7 33.4,40.7 	"/>
	<g>
		<path fill="#FFFFFF" d="M68.2,11.2h-16l-3.9,16.9h7.6c3.8,0,4.9,1.6,4.5,3.7c-0.3,1.9-1.9,3.2-4.9,3.2c-2.4,0-4.6-0.8-6.2-2.5
			l-4.3,3.7c2.1,2.7,6,5.1,10.2,5.1c6.2,0,10.9-2.8,12.2-8.9c1.2-5.6-2.5-10.2-9.4-10.2h-2.3l1.1-4.6h10.1L68.2,11.2z"/>
		<path fill="#FFFFFF" d="M79.2,31.1c0,0.8-0.6,1.5-2.2,1.5h-2.3l0.6-2.7h2.3C78.6,29.9,79.2,30.4,79.2,31.1 M74.1,35.3h2.6
			c1.3,0,1.9,0.6,1.7,1.5c-0.2,0.9-1,1.2-2.3,1.2h-2.6L74.1,35.3z M82.6,30.5c0-1.8-1.7-3.3-4.5-3.3h-5.5l-2.9,13.5h6.1
			c3.5,0,5.2-1,5.8-3.6c0.3-1.4-0.4-2.7-1.5-3.2C81.7,33.3,82.6,32,82.6,30.5"/>
	</g>
</g>
</svg>
