<?xml version="1.0" encoding="utf-8"?>
<svg version="1.1" xmlns="http://www.w3.org/2000/svg" xmlns:xlink="http://www.w3.org/1999/xlink" x="0px" y="0px"
	 viewBox="0 0 100 50" enable-background="new 0 0 100 50" xml:space="preserve" width="100" height="50">
<g>
	<g>
		<path fill="#FFFFFF" d="M28.9,32.6c0,1.1-0.8,1.7-2.1,1.7h-2l0.6-3h2C28.3,31.3,28.9,31.8,28.9,32.6 M32,32.2c0-2-1.5-3.7-4.3-3.7
			h-4.9l-2.7,12.9h3.1l0.9-4.3h2.5C30,37,32,35.1,32,32.2"/>
	</g>
	<polygon fill="#FFFFFF" points="38.1,28.5 34.9,28.5 32.2,41.3 40.5,41.3 41.1,38.5 35.9,38.5 	"/>
	<path fill="#FFFFFF" d="M50.7,35.9h-3l2.4-4.3L50.7,35.9z M54.6,41.3l-2.1-12.9h-3.7l-7.5,12.9h3.4l1.5-2.7h5l0.4,2.7H54.6z"/>
	<g>
		<path fill="#FFFFFF" d="M67.9,29.8c-1.9-1.3-3.9-1.5-5.4-1.5c-3.4,0-5.3,1.9-5.3,4.5c0,1.9,1.4,3.1,3.6,3.5l0.6,0.1
			c1.4,0.3,2.1,0.5,2.1,1.2c0,0.8-0.9,1.2-2,1.2c-1.3,0-2.9-0.4-4.3-1.5l-1.7,2.4c1.5,1.2,3.8,1.8,5.7,1.8c3.3,0,5.6-1.7,5.6-4.5
			c0-1.9-1.4-3-3.7-3.5l-0.6-0.1c-1-0.2-2-0.5-2-1.3c0-0.6,0.6-1.2,2-1.2c0.9,0,2.6,0.3,3.8,1.2L67.9,29.8z"/>
		<path fill="#FFFFFF" d="M79.9,29.8c-1.9-1.3-3.9-1.5-5.4-1.5c-3.4,0-5.3,1.9-5.3,4.5c0,1.9,1.4,3.1,3.6,3.5l0.6,0.1
			c1.4,0.3,2.1,0.5,2.1,1.2c0,0.8-0.9,1.2-2,1.2c-1.3,0-2.9-0.4-4.3-1.5l-1.7,2.4c1.5,1.2,3.8,1.8,5.7,1.8c3.3,0,5.6-1.7,5.6-4.5
			c0-1.9-1.4-3-3.7-3.5l-0.6-0.1c-1-0.2-2-0.5-2-1.3c0-0.6,0.6-1.2,2-1.2c0.9,0,2.6,0.3,3.8,1.2L79.9,29.8z"/>
	</g>
	<polygon fill="#FFFFFF" points="26.1,8.4 22.6,8.4 18.3,18.5 16.9,8.4 13.7,8.4 15.8,21.8 19.6,21.8 	"/>
	<polygon fill="#FFFFFF" points="31,8.4 27.8,8.4 24.9,21.8 28.2,21.8 	"/>
	<polygon fill="#FFFFFF" points="46.1,8.4 42.9,8.4 41.1,16.8 36.9,8.4 33.9,8.4 31.1,21.8 34.3,21.8 36.1,13.4 40.3,21.8 
		43.3,21.8 	"/>
	<polygon fill="#FFFFFF" points="61.2,8.4 58,8.4 56.2,16.8 52,8.4 49,8.4 46.2,21.8 49.4,21.8 51.2,13.4 55.4,21.8 58.4,21.8 	"/>
	<polygon fill="#FFFFFF" points="72.7,13.6 66.3,13.6 66.8,11.3 73.5,11.3 74.1,8.4 64.1,8.4 61.3,21.8 71.3,21.8 71.9,18.9 
		65.2,18.9 65.7,16.4 72.1,16.4 	"/>
	<g>
		<path fill="#FFFFFF" d="M83.1,12.5c0,0.8-0.5,1.6-2.1,1.6h-2.4l0.6-2.8h2.2C82.5,11.3,83.1,11.8,83.1,12.5 M86.3,12.2
			c0-2-1.6-3.8-4.5-3.8h-5.3l-2.8,13.3H77l1.1-5h0.4l3.1,5h3.7l-3.4-5C85.3,16.3,86.3,14.2,86.3,12.2"/>
	</g>
</g>
</svg>
