<?xml version="1.0" encoding="utf-8"?>
<svg version="1.1" xmlns="http://www.w3.org/2000/svg" xmlns:xlink="http://www.w3.org/1999/xlink" x="0px" y="0px"
	 viewBox="0 0 100 50" enable-background="new 0 0 100 50" xml:space="preserve" width="100" height="50">
<g>
	<polygon fill="#FFFFFF" points="63.8,10.3 45.3,10.3 44,16.6 54.4,16.6 41.1,39.7 49.2,39.7 62.6,16 	"/>
	<polygon fill="#FFFFFF" points="44.3,10.3 36.7,10.3 25.8,33.5 22.8,10.3 15.7,10.3 20.5,39.7 28.9,39.7 	"/>
	<g>
		<path fill="#FFFFFF" d="M84.1,10.3H68l-3.9,16.9h7.6c3.8,0,4.9,1.6,4.5,3.7c-0.3,1.9-1.9,3.2-4.9,3.2c-2.4,0-4.6-0.8-6.2-2.5
			l-4.3,3.7c2.1,2.7,6,5.1,10.2,5.1c6.2,0,10.9-2.8,12.2-8.9c1.2-5.6-2.5-10.2-9.4-10.2h-2.3l1.1-4.6h10.1L84.1,10.3z"/>
	</g>
</g>
</svg>
