<?xml version="1.0" encoding="utf-8"?>
<svg version="1.1" xmlns="http://www.w3.org/2000/svg" xmlns:xlink="http://www.w3.org/1999/xlink" x="0px" y="0px"
	 viewBox="0 0 100 50" enable-background="new 0 0 100 50" xml:space="preserve" width="100" height="50">
<g>
	<polygon fill="#FFFFFF" points="24.7,18.3 13.8,18.3 13.1,21.3 17,21.3 14.8,31.7 18.1,31.7 20.3,21.3 24.1,21.3 	"/>
	<g>
		<path fill="#FFFFFF" d="M32.8,22.4c0,0.8-0.5,1.6-2.1,1.6h-2.4l0.6-2.8h2.2C32.1,21.2,32.8,21.7,32.8,22.4 M36,22.1
			c0-2-1.6-3.8-4.5-3.8h-5.3l-2.8,13.3h3.3l1.1-5h0.4l3.1,5h3.7l-3.4-5C34.9,26.2,36,24.1,36,22.1"/>
	</g>
	<polygon fill="#FFFFFF" points="42.4,18.3 39.2,18.3 36.3,31.7 39.6,31.7 	"/>
	<g>
		<path fill="#FFFFFF" d="M51.5,22.6c0,1.1-0.8,1.8-2.2,1.8h-2.1l0.7-3.1h2C50.9,21.2,51.5,21.8,51.5,22.6 M54.8,22.2
			c0-2.1-1.6-3.9-4.5-3.9h-5.1l-2.8,13.3h3.3l1-4.5h2.6C52.7,27.2,54.8,25.2,54.8,22.2"/>
		<path fill="#FFFFFF" d="M63.1,22.6c0,1.1-0.8,1.8-2.2,1.8h-2.1l0.7-3.1h2C62.5,21.2,63.1,21.8,63.1,22.6 M66.4,22.2
			c0-2.1-1.6-3.9-4.5-3.9h-5.1l-2.8,13.3h3.3l1-4.5h2.6C64.3,27.2,66.4,25.2,66.4,22.2"/>
	</g>
	<polygon fill="#FFFFFF" points="77.6,23.5 71.2,23.5 71.7,21.2 78.4,21.2 79,18.3 69,18.3 66.2,31.7 76.2,31.7 76.8,28.8 
		70.1,28.8 70.6,26.4 77,26.4 	"/>
	<polygon fill="#FFFFFF" points="84.8,18.3 81.5,18.3 78.7,31.7 87.2,31.7 87.9,28.7 82.6,28.7 	"/>
</g>
</svg>
