<?xml version="1.0" encoding="utf-8"?>
<svg version="1.1" xmlns="http://www.w3.org/2000/svg" xmlns:xlink="http://www.w3.org/1999/xlink" x="0px" y="0px"
	 viewBox="0 0 100 50" enable-background="new 0 0 100 50" xml:space="preserve" width="100" height="50">
<g>
	<polygon fill="#FFFFFF" points="83,21.2 78.9,21.2 75.9,25.7 75.2,28.9 69.9,28.9 81.9,10.8 74.5,10.8 62.4,29.8 61.2,35.2 
		73.9,35.2 72.8,40.3 79,40.3 80,35.2 83.2,35.2 84.6,28.9 81.4,28.9 	"/>
	<g>
		<path fill="#FFFFFF" d="M50,26c2.2,0,3.8,1.5,3.8,3.7c0,2.5-1.7,4.5-4.3,4.5c-2.3,0-3.8-1.6-3.8-3.8C45.8,28,47.5,26,50,26
			 M51.7,20.2l8.3-9.9h-8.2l-9,11.3C40,25.1,39,28.2,39,30.8c0,5.7,4.7,9.4,10.3,9.4c6.7,0,11.3-5,11.3-11.1
			C60.7,23.8,56.9,20.5,51.7,20.2"/>
	</g>
	<polygon fill="#FFFFFF" points="43.7,10.3 36,10.3 25.1,33.5 22.2,10.3 15,10.3 19.8,39.7 28.2,39.7 	"/>
</g>
</svg>
