<?xml version="1.0" encoding="utf-8"?>
<svg version="1.1" xmlns="http://www.w3.org/2000/svg" xmlns:xlink="http://www.w3.org/1999/xlink" x="0px" y="0px"
	 viewBox="0 0 100 50" enable-background="new 0 0 100 50" xml:space="preserve" width="100" height="50">
<g>
	<polygon fill="#FFFFFF" points="48.9,10.3 41.2,10.3 30.3,33.5 27.4,10.3 20.2,10.3 25,39.7 33.4,39.7 	"/>
	<g>
		<path fill="#FFFFFF" d="M68.2,10.3h-16l-3.9,16.9h7.6c3.8,0,4.9,1.6,4.5,3.7c-0.3,1.9-1.9,3.2-4.9,3.2c-2.4,0-4.6-0.8-6.2-2.5
			l-4.3,3.7c2.1,2.7,6,5.1,10.2,5.1c6.2,0,10.9-2.8,12.2-8.9c1.2-5.6-2.5-10.2-9.4-10.2h-2.3l1.1-4.6h10.1L68.2,10.3z"/>
	</g>
	<path fill="#FFFFFF" d="M77.9,34h-3.2l2.5-4.5L77.9,34z M82,39.7l-2.2-13.5h-3.8L68,39.7h3.5l1.6-2.8h5.2l0.4,2.8H82z"/>
</g>
</svg>
