<?xml version="1.0" encoding="utf-8"?>
<svg version="1.1" xmlns="http://www.w3.org/2000/svg" xmlns:xlink="http://www.w3.org/1999/xlink" x="0px" y="0px"
	 viewBox="0 0 100 50" enable-background="new 0 0 100 50" xml:space="preserve" width="100" height="50">
<g>
	<g>
		<path fill="#FFFFFF" d="M28.9,22.6c0,1.1-0.8,1.7-2.1,1.7h-2l0.6-3h2C28.3,21.4,28.9,21.9,28.9,22.6 M32,22.3c0-2-1.5-3.7-4.3-3.7
			h-4.9l-2.7,12.9h3.1l0.9-4.3h2.5C30,27.1,32,25.1,32,22.3"/>
	</g>
	<polygon fill="#FFFFFF" points="38.1,18.6 34.9,18.6 32.2,31.4 40.5,31.4 41.1,28.6 35.9,28.6 	"/>
	<path fill="#FFFFFF" d="M50.7,26h-3l2.4-4.3L50.7,26z M54.6,31.4l-2.1-12.9h-3.7l-7.5,12.9h3.4l1.5-2.7h5l0.4,2.7H54.6z"/>
	<g>
		<path fill="#FFFFFF" d="M67.9,19.9c-1.9-1.3-3.9-1.5-5.4-1.5c-3.4,0-5.3,1.9-5.3,4.5c0,1.9,1.4,3.1,3.6,3.5l0.6,0.1
			c1.4,0.3,2.1,0.5,2.1,1.2c0,0.8-0.9,1.2-2,1.2c-1.3,0-2.9-0.4-4.3-1.5l-1.7,2.4c1.5,1.2,3.8,1.8,5.7,1.8c3.3,0,5.6-1.7,5.6-4.5
			c0-1.9-1.4-3-3.7-3.5l-0.6-0.1c-1-0.2-2-0.5-2-1.3c0-0.6,0.6-1.2,2-1.2c0.9,0,2.6,0.3,3.8,1.2L67.9,19.9z"/>
		<path fill="#FFFFFF" d="M79.9,19.9c-1.9-1.3-3.9-1.5-5.4-1.5c-3.4,0-5.3,1.9-5.3,4.5c0,1.9,1.4,3.1,3.6,3.5l0.6,0.1
			c1.4,0.3,2.1,0.5,2.1,1.2c0,0.8-0.9,1.2-2,1.2c-1.3,0-2.9-0.4-4.3-1.5l-1.7,2.4c1.5,1.2,3.8,1.8,5.7,1.8c3.3,0,5.6-1.7,5.6-4.5
			c0-1.9-1.4-3-3.7-3.5l-0.6-0.1c-1-0.2-2-0.5-2-1.3c0-0.6,0.6-1.2,2-1.2c0.9,0,2.6,0.3,3.8,1.2L79.9,19.9z"/>
	</g>
</g>
</svg>
