<?xml version="1.0" encoding="utf-8"?>
<svg version="1.1" xmlns="http://www.w3.org/2000/svg" xmlns:xlink="http://www.w3.org/1999/xlink" x="0px" y="0px"
	 viewBox="0 0 100 50" enable-background="new 0 0 100 50" xml:space="preserve" width="100" height="50">
<g>
	<polygon fill="#FFFFFF" points="20.8,18.6 10.3,18.6 9.7,21.4 13.4,21.4 11.3,31.4 14.4,31.4 16.5,21.4 20.2,21.4 	"/>
	<polygon fill="#FFFFFF" points="33.3,18.6 29.9,18.6 25.7,28.3 24.4,18.6 21.3,18.6 23.4,31.4 27,31.4 	"/>
	<polygon fill="#FFFFFF" points="37.8,18.6 34.9,18.6 32.5,31.4 35.3,31.4 	"/>
	<polygon fill="#FFFFFF" points="43.8,18.6 40.6,18.6 37.9,31.4 46.2,31.4 46.8,28.6 41.7,28.6 	"/>
	<polygon fill="#FFFFFF" points="53.4,18.6 50.2,18.6 47.5,31.4 55.7,31.4 56.3,28.6 51.2,28.6 	"/>
	<polygon fill="#FFFFFF" points="62.9,18.6 59.8,18.6 57.1,31.4 60.2,31.4 	"/>
	<polygon fill="#FFFFFF" points="77,18.6 73.9,18.6 72.2,26.7 68.2,18.6 65.3,18.6 62.5,31.4 65.6,31.4 67.4,23.4 71.4,31.4 
		74.3,31.4 	"/>
	<g>
		<path fill="#FFFFFF" d="M89.3,20.4c-1.4-1.8-3.5-2.1-4.8-2.1c-4.1,0-7.2,3-7.2,7.3c0,3.6,2.7,6,6.4,6c3.3,0,6.1-2.2,6.6-6.2
			c0.1-0.4,0.1-0.8,0-1.2h-5.9l-0.5,2.4h3.2c-0.4,1.5-1.5,2.3-3.2,2.3c-2,0-3.3-1.3-3.3-3.4c0-2.5,1.7-4.3,3.8-4.3
			c1.2,0,2.1,0.5,2.6,1.1L89.3,20.4z"/>
	</g>
</g>
</svg>
