<?xml version="1.0" encoding="utf-8"?>
<svg version="1.1" xmlns="http://www.w3.org/2000/svg" xmlns:xlink="http://www.w3.org/1999/xlink" x="0px" y="0px"
	 viewBox="0 0 100 50" enable-background="new 0 0 100 50" xml:space="preserve" width="100" height="50">
<g>
	<g>
		<path fill="#FFFFFF" d="M31.3,10c-2-1.4-4-1.6-5.5-1.6c-3.5,0-5.4,2-5.4,4.6c0,2,1.4,3.2,3.7,3.6l0.6,0.1c1.4,0.3,2.2,0.5,2.2,1.3
			c0,0.9-0.9,1.3-2.1,1.3c-1.4,0-3-0.4-4.4-1.5l-1.8,2.5c1.5,1.3,3.9,1.8,5.9,1.8c3.4,0,5.8-1.8,5.8-4.6c0-1.9-1.4-3.1-3.8-3.5
			l-0.6-0.1c-1-0.2-2.1-0.5-2.1-1.3c0-0.7,0.6-1.2,2-1.2c1,0,2.7,0.3,3.9,1.2L31.3,10z"/>
		<path fill="#FFFFFF" d="M45,8.6h-3.2l-1.6,7.8c-0.4,1.8-1.5,2.6-2.9,2.6c-1.3,0-2.1-0.6-2.1-1.8c0-0.2,0-0.5,0.1-0.8l1.7-7.7h-3.2
			L32,16.3c-0.1,0.5-0.2,1-0.2,1.4c0,2.8,2.1,4.4,5.3,4.4c3.4,0,5.5-1.9,6.2-5.3L45,8.6z"/>
		<path fill="#FFFFFF" d="M54,12.8c0,1.1-0.8,1.7-2.2,1.7h-2.1l0.6-3.1h2C53.4,11.5,54,12,54,12.8 M57.2,12.4c0-2.1-1.6-3.8-4.4-3.8
			h-5L45,21.8h3.2l0.9-4.5h2.5C55.2,17.3,57.2,15.4,57.2,12.4"/>
	</g>
	<polygon fill="#FFFFFF" points="67.9,13.7 61.6,13.7 62,11.5 68.7,11.5 69.3,8.6 59.4,8.6 56.6,21.8 66.5,21.8 67.1,19 60.4,19 
		61,16.6 67.3,16.6 	"/>
	<g>
		<path fill="#FFFFFF" d="M78.2,12.7c0,0.8-0.5,1.6-2.1,1.6h-2.4l0.6-2.7h2.2C77.6,11.5,78.2,11.9,78.2,12.7 M81.4,12.4
			c0-2-1.6-3.7-4.4-3.7h-5.3L69,21.8h3.2l1-4.9h0.4l3.1,4.9h3.6l-3.3-5C80.4,16.4,81.4,14.3,81.4,12.4"/>
	</g>
	<polygon fill="#FFFFFF" points="24.7,28.4 13.8,28.4 13.1,31.3 17,31.3 14.8,41.7 18.1,41.7 20.3,31.3 24.1,31.3 	"/>
	<g>
		<path fill="#FFFFFF" d="M32.8,32.5c0,0.8-0.5,1.6-2.1,1.6h-2.4l0.6-2.8h2.2C32.1,31.3,32.8,31.7,32.8,32.5 M36,32.2
			c0-2-1.6-3.8-4.5-3.8h-5.3l-2.8,13.3h3.3l1.1-5h0.4l3.1,5h3.7l-3.4-5C34.9,36.3,36,34.1,36,32.2"/>
	</g>
	<polygon fill="#FFFFFF" points="42.4,28.4 39.2,28.4 36.3,41.7 39.6,41.7 	"/>
	<g>
		<path fill="#FFFFFF" d="M51.5,32.6c0,1.1-0.8,1.8-2.2,1.8h-2.1l0.7-3.1h2C50.9,31.3,51.5,31.8,51.5,32.6 M54.8,32.2
			c0-2.1-1.6-3.9-4.5-3.9h-5.1l-2.8,13.3h3.3l1-4.5h2.6C52.7,37.2,54.8,35.2,54.8,32.2"/>
		<path fill="#FFFFFF" d="M63.1,32.6c0,1.1-0.8,1.8-2.2,1.8h-2.1l0.7-3.1h2C62.5,31.3,63.1,31.8,63.1,32.6 M66.4,32.2
			c0-2.1-1.6-3.9-4.5-3.9h-5.1l-2.8,13.3h3.3l1-4.5h2.6C64.3,37.2,66.4,35.2,66.4,32.2"/>
	</g>
	<polygon fill="#FFFFFF" points="77.6,33.5 71.2,33.5 71.7,31.2 78.4,31.2 79,28.4 69,28.4 66.2,41.7 76.2,41.7 76.8,38.8 
		70.1,38.8 70.6,36.4 77,36.4 	"/>
	<polygon fill="#FFFFFF" points="84.8,28.4 81.5,28.4 78.7,41.7 87.2,41.7 87.9,38.8 82.6,38.8 	"/>
</g>
</svg>
