<?xml version="1.0" encoding="utf-8"?>
<svg version="1.1" xmlns="http://www.w3.org/2000/svg" xmlns:xlink="http://www.w3.org/1999/xlink" x="0px" y="0px"
	 viewBox="0 0 100 50" enable-background="new 0 0 100 50" xml:space="preserve" width="100" height="50">
<g>
	<g>
		<path fill="#FFFFFF" d="M73.3,26c2.2,0,3.8,1.5,3.8,3.7c0,2.5-1.7,4.5-4.3,4.5c-2.3,0-3.8-1.6-3.8-3.8C69,28,70.7,26,73.3,26
			 M75,20.2l8.3-9.9H75l-9,11.3c-2.8,3.5-3.8,6.6-3.8,9.3c0,5.7,4.7,9.4,10.3,9.4c6.7,0,11.3-5,11.3-11.1
			C83.9,23.8,80.1,20.5,75,20.2"/>
	</g>
	<polygon fill="#FFFFFF" points="64,10.3 45.5,10.3 44.2,16.6 54.6,16.6 41.3,39.7 49.4,39.7 62.8,16 	"/>
	<polygon fill="#FFFFFF" points="44.5,10.3 36.9,10.3 26,33.5 23,10.3 15.9,10.3 20.7,39.7 29.1,39.7 	"/>
</g>
</svg>
