<?xml version="1.0" encoding="utf-8"?>
<svg version="1.1" xmlns="http://www.w3.org/2000/svg" xmlns:xlink="http://www.w3.org/1999/xlink" x="0px" y="0px"
	 viewBox="0 0 100 50" enable-background="new 0 0 100 50" xml:space="preserve" width="100" height="50">
<g>
	<path fill="#FFFFFF" d="M39,24.3c0,2.6-1.7,4.5-4.5,4.5h-2.3l1.6-7.5h2C38.1,21.2,39,22.5,39,24.3 M42.4,23.9
		c0-3.1-2.3-5.6-6.2-5.6h-5l-2.9,13.5h5.8C39.5,31.7,42.4,28.3,42.4,23.9"/>
	<path fill="#FFFFFF" d="M57.2,18.3h-3.3l-1.7,7.9c-0.4,1.9-1.5,2.7-3,2.7c-1.3,0-2.2-0.6-2.2-1.9c0-0.3,0-0.5,0.1-0.8l1.7-7.9h-3.3
		l-1.7,7.8c-0.1,0.5-0.2,1-0.2,1.5c0,2.9,2.1,4.5,5.4,4.5c3.5,0,5.6-1.9,6.3-5.4L57.2,18.3z"/>
	<path fill="#FFFFFF" d="M68.3,24.6c0,2.4-1.7,4.3-4,4.3c-2,0-3.4-1.3-3.4-3.5c0-2.4,1.6-4.3,4-4.3C66.9,21.1,68.3,22.4,68.3,24.6
		 M71.7,24.4c0-3.8-2.8-6.4-6.6-6.4c-4.4,0-7.5,3.5-7.5,7.6c0,3.8,2.8,6.4,6.6,6.4C68.6,32,71.7,28.5,71.7,24.4"/>
</g>
</svg>
