<?xml version="1.0" encoding="utf-8"?>
<svg version="1.1" xmlns="http://www.w3.org/2000/svg" xmlns:xlink="http://www.w3.org/1999/xlink" x="0px" y="0px"
	 viewBox="0 0 100 50" enable-background="new 0 0 100 50" xml:space="preserve" width="100" height="50">
<g>
	<polygon fill="#FFFFFF" points="64.6,35.2 66.2,28 73.7,28 74.8,22.6 67.3,22.6 68.9,15.3 63.3,15.3 61.8,22.6 54.3,22.6 53.2,28 
		60.6,28 59.1,35.2 	"/>
	<g>
		<path fill="#FFFFFF" d="M50.7,10.3h-16l-3.9,16.9h7.6c3.8,0,4.9,1.6,4.5,3.7C42.6,32.8,41,34,38,34c-2.4,0-4.6-0.8-6.2-2.5
			l-4.3,3.7c2.1,2.7,6,5.1,10.2,5.1c6.2,0,10.9-2.8,12.2-8.9c1.2-5.6-2.5-10.2-9.4-10.2h-2.3l1.1-4.6h10.1L50.7,10.3z"/>
	</g>
</g>
</svg>
