<?xml version="1.0" encoding="utf-8"?>
<svg version="1.1" xmlns="http://www.w3.org/2000/svg" xmlns:xlink="http://www.w3.org/1999/xlink" x="0px" y="0px"
	 viewBox="0 0 100 50" enable-background="new 0 0 100 50" xml:space="preserve" width="100" height="50">
<g>
	<path fill="#FFFFFF" d="M23.7,34.2c0,2.5-1.6,4.3-4.3,4.3h-2.1l1.5-7.2h1.9C22.8,31.3,23.7,32.6,23.7,34.2 M26.9,33.8
		c0-2.9-2.2-5.3-5.9-5.3h-4.8l-2.7,12.9H19C24.1,41.3,26.9,38,26.9,33.8"/>
	<path fill="#FFFFFF" d="M38.4,34.5c0,2.3-1.6,4.1-3.8,4.1c-1.9,0-3.3-1.3-3.3-3.3c0-2.3,1.6-4.1,3.8-4.1
		C37.1,31.2,38.4,32.5,38.4,34.5 M41.6,34.3c0-3.7-2.7-6.1-6.3-6.1c-4.2,0-7.2,3.3-7.2,7.3c0,3.7,2.6,6.1,6.3,6.1
		C38.7,41.6,41.6,38.3,41.6,34.3"/>
	<path fill="#FFFFFF" d="M51.1,32.2c0,0.8-0.5,1.4-2.1,1.4h-2.2l0.5-2.5h2.2C50.5,31.1,51.1,31.5,51.1,32.2 M46.3,36.2h2.4
		c1.2,0,1.8,0.5,1.6,1.4c-0.2,0.9-0.9,1.2-2.1,1.2h-2.4L46.3,36.2z M54.3,31.6c0-1.7-1.6-3.1-4.3-3.1h-5.3l-2.7,12.9h5.8
		c3.3,0,5-1,5.6-3.4c0.3-1.4-0.4-2.6-1.5-3C53.5,34.3,54.3,33,54.3,31.6"/>
	<path fill="#FFFFFF" d="M64.1,32.2c0,0.8-0.5,1.4-2.1,1.4h-2.2l0.5-2.5h2.2C63.5,31.1,64.1,31.5,64.1,32.2 M59.3,36.2h2.4
		c1.2,0,1.8,0.5,1.6,1.4c-0.2,0.9-0.9,1.2-2.1,1.2h-2.4L59.3,36.2z M67.3,31.6c0-1.7-1.6-3.1-4.3-3.1h-5.3L55,41.3h5.8
		c3.3,0,5-1,5.6-3.4c0.3-1.4-0.4-2.6-1.5-3C66.5,34.3,67.3,33,67.3,31.6"/>
	<polygon fill="#FFFFFF" points="78.9,33.5 72.8,33.5 73.3,31.3 79.7,31.3 80.3,28.5 70.7,28.5 68,41.3 77.7,41.3 78.2,38.6 
		71.7,38.6 72.2,36.2 78.4,36.2 	"/>
	<polygon fill="#FFFFFF" points="85.9,28.5 82.7,28.5 80,41.3 88.3,41.3 88.9,38.5 83.8,38.5 	"/>
	<path fill="#FFFFFF" d="M21,14.4c0,2.5-1.6,4.3-4.3,4.3h-2.1l1.5-7.2H18C20.1,11.5,21,12.7,21,14.4 M24.3,14c0-2.9-2.2-5.3-5.9-5.3
		h-4.8l-2.7,12.9h5.5C21.5,21.5,24.3,18.2,24.3,14"/>
	<path fill="#FFFFFF" d="M32.4,16h-3l2.4-4.3L32.4,16z M36.2,21.5L34.1,8.7h-3.7l-7.5,12.9h3.4l1.5-2.7h5l0.4,2.7H36.2z"/>
	<path fill="#FFFFFF" d="M49.1,10.5c-1.4-1.8-3.5-2.1-4.8-2.1c-4.1,0-7.2,3-7.2,7.3c0,3.6,2.7,6,6.4,6c3.3,0,6.1-2.2,6.6-6.2
		c0.1-0.4,0.1-0.8,0-1.2h-5.9l-0.5,2.4h3.2c-0.4,1.5-1.5,2.3-3.2,2.3c-2,0-3.3-1.3-3.3-3.4c0-2.5,1.7-4.3,3.8-4.3
		c1.2,0,2.1,0.5,2.6,1.1L49.1,10.5z"/>
	<polygon fill="#FFFFFF" points="61.6,13.6 55.5,13.6 56,11.4 62.4,11.4 63,8.7 53.4,8.7 50.7,21.5 60.3,21.5 60.9,18.7 54.4,18.7 
		54.9,16.4 61.1,16.4 	"/>
	<polygon fill="#FFFFFF" points="77.2,8.7 74.1,8.7 72.4,16.7 68.4,8.7 65.4,8.7 62.7,21.5 65.8,21.5 67.5,13.4 71.6,21.5 
		74.5,21.5 	"/>
	<path fill="#FFFFFF" d="M89.2,10c-1.9-1.3-3.9-1.5-5.4-1.5c-3.4,0-5.3,1.9-5.3,4.5c0,1.9,1.4,3.1,3.6,3.5l0.6,0.1
		c1.4,0.3,2.1,0.5,2.1,1.2c0,0.8-0.9,1.2-2,1.2c-1.3,0-2.9-0.4-4.3-1.5l-1.7,2.4c1.5,1.2,3.8,1.8,5.7,1.8c3.3,0,5.6-1.7,5.6-4.5
		c0-1.9-1.4-3-3.7-3.5l-0.6-0.1c-1-0.2-2-0.5-2-1.3c0-0.6,0.6-1.2,2-1.2c0.9,0,2.6,0.3,3.8,1.2L89.2,10z"/>
</g>
</svg>
