<?xml version="1.0" encoding="utf-8"?><!DOCTYPE svg PUBLIC "-//W3C//DTD SVG 1.1//EN" "http://www.w3.org/Graphics/SVG/1.1/DTD/svg11.dtd"><svg xmlns="http://www.w3.org/2000/svg" xmlns:xlink="http://www.w3.org/1999/xlink"><symbol id="checked" viewBox="0 0 32 32"><style>.aast0{fill:#009852}</style><path class="aast0" d="M26.7 10.2l-2.8-2.8-10.8 10.8L8.9 14l-2.8 2.8 7.1 7.1 2.8-2.8V21z"/></symbol><symbol id="circle" viewBox="0 0 32 32"><style>.abst0{fill:#fff}</style><path class="abst0" d="M15.7 28.4C8.8 28.4 3.3 22.8 3.3 16c0-6.8 5.6-12.4 12.4-12.4S28.1 9.2 28.1 16c0 6.8-5.6 12.4-12.4 12.4z"/><path d="M15.7 4.1c6.6 0 11.9 5.3 11.9 11.9s-5.3 11.9-11.9 11.9S3.8 22.6 3.8 16 9.1 4.1 15.7 4.1m0-1C8.5 3.1 2.8 8.9 2.8 16s5.8 12.9 12.9 12.9S28.6 23.1 28.6 16 22.8 3.1 15.7 3.1z"/></symbol><symbol viewBox="0 0 32 32" id="circle-down"><path d="M32 16c0-8.837-7.163-16-16-16S0 7.163 0 16s7.163 16 16 16 16-7.163 16-16zM3 16C3 8.82 8.82 3 16 3s13 5.82 13 13-5.82 13-13 13S3 23.18 3 16z"/><path d="M9.914 11.086l-2.829 2.829 8.914 8.914 8.914-8.914-2.828-2.828-6.086 6.086z"/></symbol><symbol viewBox="0 0 32 32" id="circle-left"><path d="M16 32c8.837 0 16-7.163 16-16S24.837 0 16 0 0 7.163 0 16s7.163 16 16 16zm0-29c7.18 0 13 5.82 13 13s-5.82 13-13 13S3 23.18 3 16 8.82 3 16 3z"/><path d="M20.914 9.914l-2.829-2.829-8.914 8.914 8.914 8.914 2.828-2.828-6.086-6.086z"/></symbol><symbol viewBox="0 0 32 32" id="circle-right"><path d="M16 0C7.163 0 0 7.163 0 16s7.163 16 16 16 16-7.163 16-16S24.837 0 16 0zm0 29C8.82 29 3 23.18 3 16S8.82 3 16 3s13 5.82 13 13-5.82 13-13 13z"/><path d="M11.086 22.086l2.829 2.829 8.914-8.914-8.914-8.914-2.828 2.828 6.086 6.086z"/></symbol><symbol viewBox="0 0 32 32" id="circle-up"><path d="M0 16c0 8.837 7.163 16 16 16s16-7.163 16-16S24.837 0 16 0 0 7.163 0 16zm29 0c0 7.18-5.82 13-13 13S3 23.18 3 16 8.82 3 16 3s13 5.82 13 13z"/><path d="M22.086 20.914l2.829-2.829-8.914-8.914-8.914 8.914 2.828 2.828 6.086-6.086z"/></symbol><symbol viewBox="0 0 32 32" id="close"><path d="M18.9 16l6-6.1-2.8-2.8-6.1 6-6-6-2.8 2.8 6 6.1-6 6.1 2.8 2.8 6-6 6.1 6 2.8-2.8-6-6.1z"/></symbol><symbol viewBox="0 0 32 32" id="cloud"><path d="M25 10c-.332 0-.66.023-.987.07C22.146 7.526 19.199 6 16 6s-6.145 1.526-8.013 4.07A6.918 6.918 0 0 0 7 10c-3.859 0-7 3.141-7 7s3.141 7 7 7c.856 0 1.693-.156 2.482-.458A9.906 9.906 0 0 0 16 26a9.9 9.9 0 0 0 6.518-2.458A6.926 6.926 0 0 0 25 24c3.859 0 7-3.141 7-7s-3.141-7-7-7zm0 12a4.97 4.97 0 0 1-2.871-.917C20.662 22.851 18.477 24 16 24s-4.662-1.148-6.129-2.917A4.968 4.968 0 0 1 7 22c-2.762 0-5-2.238-5-5s2.238-5 5-5c.676 0 1.316.138 1.902.38C10.229 9.792 12.893 8 16 8s5.771 1.792 7.096 4.38A4.983 4.983 0 0 1 25 12c2.762 0 5 2.238 5 5s-2.238 5-5 5z"/></symbol><symbol viewBox="0 0 32 32" id="cloudy"><path d="M32 15a5.578 5.578 0 0 0-6.02-5.554A7.644 7.644 0 0 0 20 6.572a7.642 7.642 0 0 0-5.98 2.874A5.578 5.578 0 0 0 8.001 15c0 .322.043.631.094.94-.034.044-.074.085-.107.13a6.918 6.918 0 0 0-.987-.07c-3.859 0-7 3.141-7 7s3.141 7 7 7c.856 0 1.693-.156 2.482-.458A9.906 9.906 0 0 0 16.001 32a9.9 9.9 0 0 0 6.518-2.458 6.926 6.926 0 0 0 2.482.458c3.859 0 7-3.141 7-7 0-1.605-.565-3.068-1.479-4.25.911-.994 1.479-2.302 1.479-3.75zm-7 13a4.97 4.97 0 0 1-2.871-.917C20.662 28.851 18.477 30 16 30s-4.662-1.148-6.129-2.917A4.968 4.968 0 0 1 7 28c-2.762 0-5-2.238-5-5s2.238-5 5-5c.676 0 1.316.137 1.902.379.035-.066.078-.125.113-.189a8.128 8.128 0 0 1 1.292-1.753c1.443-1.495 3.448-2.438 5.693-2.438 3.107 0 5.771 1.792 7.096 4.379a5.07 5.07 0 0 1 1.117-.301l.787-.078c.771 0 1.492.19 2.145.5a4.99 4.99 0 0 1 1.79 1.449A4.96 4.96 0 0 1 30 22.999a5 5 0 0 1-5 5zm4.098-10.648a6.934 6.934 0 0 0-5.085-1.282A9.915 9.915 0 0 0 16 12c-2.133 0-4.145.69-5.809 1.896a3.56 3.56 0 0 1 3.379-2.467c.484 0 .941.098 1.359.271.949-1.848 2.852-3.126 5.07-3.126s4.122 1.279 5.068 3.126a3.57 3.57 0 0 1 4.932 3.301c0 .905-.348 1.721-.902 2.351z"/></symbol><symbol viewBox="0 0 32 32" id="cloudy2"><path d="M13 4a1 1 0 0 0 1-1V1a1 1 0 0 0-2 0v2a1 1 0 0 0 1 1zm7.777 2.635l1.414-1.414a.999.999 0 1 0-1.414-1.414l-1.414 1.414a.999.999 0 1 0 1.414 1.414zM1 14h2a1 1 0 0 0 0-2H1a1 1 0 0 0 0 2zm21-1a1 1 0 0 0 1 1h2a1 1 0 0 0 0-2h-2a1 1 0 0 0-1 1zM5.221 6.635a.999.999 0 1 0 1.414-1.414L5.221 3.807a.999.999 0 1 0-1.414 1.414l1.414 1.414zM25 16c-.332 0-.66.023-.987.07a9.95 9.95 0 0 0-4.029-3.219C19.903 9.062 16.808 5.999 13 5.999c-3.859 0-7 3.141-7 7 0 1.09.271 2.109.719 3.027C2.992 16.178 0 19.237 0 22.999c0 3.859 3.141 7 7 7 .856 0 1.693-.156 2.482-.458A9.906 9.906 0 0 0 16 31.999a9.9 9.9 0 0 0 6.518-2.458 6.926 6.926 0 0 0 2.482.458c3.859 0 7-3.141 7-7s-3.141-7-7-7zM13 8c2.488 0 4.535 1.823 4.919 4.203A9.786 9.786 0 0 0 16 12a9.898 9.898 0 0 0-7.398 3.328A4.937 4.937 0 0 1 8 13a5 5 0 0 1 5-5zm12 20a4.97 4.97 0 0 1-2.871-.917C20.662 28.851 18.477 30 16 30s-4.662-1.148-6.129-2.917A4.968 4.968 0 0 1 7 28c-2.762 0-5-2.238-5-5s2.238-5 5-5c.484 0 .941.091 1.383.221.176.049.354.089.52.158a8.054 8.054 0 0 1 .999-1.484C11.363 15.137 13.536 14 16.001 14c.633 0 1.24.091 1.828.232.66.156 1.284.393 1.865.706a8.074 8.074 0 0 1 3.404 3.441A5 5 0 0 1 30.002 23a5 5 0 0 1-5 5z"/></symbol><symbol id="details" viewBox="0 0 32 32"><style>.akst0{fill:#009852}</style><path class="akst0" d="M7 19c1.7 0 3-1.3 3-3s-1.3-3-3-3-3 1.3-3 3 1.3 3 3 3M16 19c1.7 0 3-1.3 3-3s-1.3-3-3-3-3 1.3-3 3 1.3 3 3 3M25 19c1.7 0 3-1.3 3-3s-1.3-3-3-3-3 1.3-3 3 1.3 3 3 3"/></symbol><symbol id="diamond" viewBox="0 0 32 32"><style>.alst0{fill:#fff}</style><path transform="rotate(-45.001 16 16)" class="alst0" d="M6.6 6.6h18.8v18.8H6.6z"/><path d="M16 3.4L28.6 16 16 28.6 3.4 16 16 3.4M16 2L2 16l14 14 14-14L16 2z"/></symbol><symbol id="dots" viewBox="0 0 32 32"><style>.amst0{fill:#009852}</style><path class="amst0" d="M13 7c0 1.7 1.3 3 3 3s3-1.3 3-3-1.3-3-3-3-3 1.3-3 3M13 16c0 1.7 1.3 3 3 3s3-1.3 3-3-1.3-3-3-3-3 1.3-3 3M13 25c0 1.7 1.3 3 3 3s3-1.3 3-3-1.3-3-3-3-3 1.3-3 3"/></symbol><symbol viewBox="0 0 32 32" id="down"><path d="M9.914 11.086l-2.829 2.829 8.914 8.914 8.914-8.914-2.828-2.828-6.086 6.086z"/></symbol><symbol id="dropdown" viewBox="0 0 32 32" preserveAspectRatio="xMaxYMid"><style>.aost0{fill:#009852}</style><path class="aost0" d="M11 13.9L15.9 9l5 4.9zM15.9 21.9L11 17h9.9l-5 4.9"/></symbol><symbol id="dropdown-white" viewBox="0 0 32 32" preserveAspectRatio="xMaxYMid"><style>.apst0{fill:#fff}</style><path class="apst0" d="M11 13.9L15.9 9l5 4.9zM15.9 21.9L11 17h9.9l-5 4.9"/></symbol><symbol viewBox="0 0 32 32" id="facebook2"><path d="M29 0H3C1.35 0 0 1.35 0 3v26c0 1.65 1.35 3 3 3h13V18h-4v-4h4v-2c0-3.306 2.694-6 6-6h4v4h-4c-1.1 0-2 .9-2 2v2h6l-1 4h-5v14h9c1.65 0 3-1.35 3-3V3c0-1.65-1.35-3-3-3z"/></symbol><symbol viewBox="0 0 32 32" id="hamburger"><path d="M3 5h26v3H3zM3 14h26v3H3zM3 23h26v3H3z"/></symbol><symbol viewBox="0 0 32 32" id="key"><path class="aspath1" d="M31.317 9.82l-3.16-3.159-2.818-2.818-3.16-3.159c-.775-.775-2.155-.911-3.067-.304l-8.639 5.759c-.912.608-1.257 1.907-.767 2.887l2.203 4.405c.067.135.145.278.231.427L.998 25l-1 7h6v-2h4v-4h4v-4h4v-2.225c.2.119.392.226.569.314l4.405 2.203c.98.49 2.279.145 2.887-.767l5.759-8.639c.608-.912.471-2.292-.304-3.066zM4.707 26.707l-1.414-1.414 9.737-9.737 1.414 1.414-9.737 9.737zm23.95-13.464l-1.414 1.414a1.003 1.003 0 0 1-1.414 0l-8.485-8.485a1.003 1.003 0 0 1 0-1.414l1.414-1.414a1.003 1.003 0 0 1 1.414 0l8.485 8.485a1.003 1.003 0 0 1 0 1.414z"/></symbol><symbol viewBox="0 0 32 32" id="left"><path d="M20.914 9.914l-2.829-2.829-8.914 8.914 8.914 8.914 2.828-2.828-6.086-6.086z"/></symbol><symbol class="auip-inner" viewBox="0 0 80 80" id="loader"><path class="auloader-bg" d="M40 10c17.351 0 31 13.649 31 30.5S57.351 71 40.5 71 10 57.351 10 40.5 23.649 10 40.5 10z"/><path class="auloader-line" d="M40 10c17.351 0 31 13.649 31 30.5S57.351 71 40.5 71 10 57.351 10 40.5 23.649 10 40.5 10z"/></symbol><symbol id="marking" viewBox="0 0 32 32"><style>.avst0{fill:#fff}</style><path class="avst0" d="M18.9 16l6-6.1-2.8-2.8-6.1 6-6-6-2.8 2.8 6 6.1-6 6.1 2.8 2.8 6-6 6.1 6 2.8-2.8z"/></symbol><symbol viewBox="0 0 32 32" id="play"><path class="awpath1" d="M16 0C7.163 0 0 7.163 0 16s7.163 16 16 16 16-7.163 16-16S24.837 0 16 0zm0 29C8.82 29 3 23.18 3 16S8.82 3 16 3s13 5.82 13 13-5.82 13-13 13zM12 9l12 7-12 7z"/></symbol><symbol id="race-day" viewBox="0 0 32 32"><style>.axst0{fill:#009852}</style><path class="axst0" d="M23 7c0 1.7 1.3 3 3 3s3-1.3 3-3-1.3-3-3-3-3 1.3-3 3M23 16c0 1.7 1.3 3 3 3s3-1.3 3-3-1.3-3-3-3-3 1.3-3 3M23 25c0 1.7 1.3 3 3 3s3-1.3 3-3-1.3-3-3-3-3 1.3-3 3M17 4H6C4.3 4 3 5.3 3 7s1.3 3 3 3h11c1.7 0 3-1.3 3-3s-1.3-3-3-3zM17 13H6c-1.7 0-3 1.3-3 3s1.3 3 3 3h11c1.7 0 3-1.3 3-3s-1.3-3-3-3zM17 22H6c-1.7 0-3 1.3-3 3s1.3 3 3 3h11c1.7 0 3-1.3 3-3s-1.3-3-3-3z"/></symbol><symbol id="race-day-2" viewBox="0 0 32 32"><style>.ayst0{fill:#009852}</style><path class="ayst0" d="M3 4h17v6H3zM3 13h17v6H3zM3 22h17v6H3zM23 4h6v6h-6zM23 13h6v6h-6zM23 22h6v6h-6z"/></symbol><symbol id="race-day-3" viewBox="0 0 32 32"><style>.azst0{fill:#00994d}</style><path class="azst0" d="M3 4v6h26V4H3zm19 4h-4V6h4v2zm5 0h-4V6h4v2zM3 13v6h26v-6H3zm19 4h-4v-2h4v2zm5 0h-4v-2h4v2zM3 22v6h26v-6H3zm19 4h-4v-2h4v2zm5 0h-4v-2h4v2z"/></symbol><symbol viewBox="0 0 32 32" id="rainy"><path d="M25 4c-.332 0-.66.023-.987.07C22.146 1.526 19.199 0 16 0S9.855 1.526 7.987 4.07A6.918 6.918 0 0 0 7 4c-3.859 0-7 3.141-7 7s3.141 7 7 7c.856 0 1.693-.156 2.482-.458A9.906 9.906 0 0 0 16 20a9.9 9.9 0 0 0 6.518-2.458A6.926 6.926 0 0 0 25 18c3.859 0 7-3.141 7-7s-3.141-7-7-7zm0 12a4.97 4.97 0 0 1-2.871-.917C20.662 16.851 18.477 18 16 18s-4.662-1.148-6.129-2.917A4.968 4.968 0 0 1 7 16c-2.762 0-5-2.238-5-5s2.238-5 5-5c.676 0 1.316.138 1.902.38C10.229 3.792 12.893 2 16 2s5.771 1.792 7.096 4.38A4.983 4.983 0 0 1 25 6c2.762 0 5 2.238 5 5s-2.238 5-5 5zM14.063 30a2 2 0 1 0 4 0c0-1.105-2-4-2-4s-2 2.895-2 4zM22 28a2 2 0 1 0 4 0c0-1.105-2-4-2-4s-2 2.895-2 4zM6 24c0 1.105.894 2 2 2s2-.895 2-2-2-4-2-4-2 2.895-2 4z"/></symbol><symbol viewBox="0 0 32 32" id="rainy2"><path d="M25 6c-.332 0-.66.023-.987.07C22.146 3.526 19.199 2 16 2S9.855 3.526 7.987 6.07A6.918 6.918 0 0 0 7 6c-3.859 0-7 3.141-7 7s3.141 7 7 7c.856 0 1.693-.156 2.482-.458A9.906 9.906 0 0 0 16 22a9.9 9.9 0 0 0 6.518-2.458A6.926 6.926 0 0 0 25 20c3.859 0 7-3.141 7-7s-3.141-7-7-7zm0 12a4.97 4.97 0 0 1-2.871-.917C20.662 18.851 18.477 20 16 20s-4.662-1.148-6.129-2.917A4.968 4.968 0 0 1 7 18c-2.762 0-5-2.238-5-5s2.238-5 5-5c.676 0 1.316.138 1.902.38C10.229 5.792 12.893 4 16 4s5.771 1.792 7.096 4.38A4.983 4.983 0 0 1 25 8c2.762 0 5 2.238 5 5s-2.238 5-5 5zM14 28a2 2 0 1 0 4 0c0-1.105-2-4-2-4s-2 2.895-2 4z"/></symbol><symbol viewBox="0 0 32 32" id="right"><path d="M11.086 22.086l2.829 2.829 8.914-8.914-8.914-8.914-2.828 2.828 6.086 6.086z"/></symbol><symbol viewBox="0 0 32 32" id="search"><path class="bdpath1" d="M31.008 27.231l-7.58-6.447c-.784-.705-1.622-1.029-2.299-.998a11.954 11.954 0 0 0 2.87-7.787c0-6.627-5.373-12-12-12s-12 5.373-12 12 5.373 12 12 12c2.972 0 5.691-1.081 7.787-2.87-.031.677.293 1.515.998 2.299l6.447 7.58c1.104 1.226 2.907 1.33 4.007.23s.997-2.903-.23-4.007zM12 20a8 8 0 1 1 0-16 8 8 0 0 1 0 16z"/></symbol><symbol viewBox="0 0 32 32" id="snowy"><path d="M20.378 27.73l-1.125-.648c.034-.195.06-.394.06-.602s-.026-.406-.063-.602l1.128-.65c.526-.307.706-.983.404-1.506a1.102 1.102 0 0 0-1.508-.406l-1.137.656a3.325 3.325 0 0 0-1.031-.6v-1.306a1.105 1.105 0 0 0-2.209 0v1.305a3.301 3.301 0 0 0-1.033.602l-1.134-.656a1.104 1.104 0 1 0-1.104 1.913l1.122.648c-.037.197-.06.396-.06.603s.023.406.06.602l-1.122.648a1.103 1.103 0 1 0 1.102 1.914l1.135-.652c.305.258.65.461 1.034.598V30.9c0 .609.495 1.102 1.104 1.102s1.105-.492 1.105-1.102v-1.309c.383-.137.73-.34 1.033-.602l1.135.656a1.104 1.104 0 1 0 1.104-1.914zM16 27.586a1.105 1.105 0 1 1 0 0zm13.635-2.82l-.755-.201a1.892 1.892 0 0 0-.181-.686l.548-.548a.655.655 0 1 0-.927-.928l-.549.547a1.985 1.985 0 0 0-.685-.18l-.201-.754a.658.658 0 0 0-.805-.465.66.66 0 0 0-.464.805l.201.744a2.1 2.1 0 0 0-.281.229 2.272 2.272 0 0 0-.227.279l-.744-.201a.66.66 0 0 0-.806.465.66.66 0 0 0 .464.805l.75.202c.021.236.081.466.186.685l-.551.551a.654.654 0 0 0 .003.926.654.654 0 0 0 .924.003l.552-.552c.216.107.448.167.688.185l.198.751a.658.658 0 1 0 1.271-.342l-.201-.744c.094-.066.19-.141.279-.227.086-.087.159-.184.227-.28l.745.201a.656.656 0 0 0 .341-1.269zm-2.24.418a.657.657 0 0 1-.93-.928.66.66 0 0 1 .93 0 .66.66 0 0 1 0 .928zM7.434 21.406l-.742.199a2.425 2.425 0 0 0-.228-.277 2.06 2.06 0 0 0-.28-.227l.199-.746a.656.656 0 1 0-1.266-.339l-.203.754c-.238.02-.466.078-.684.181l-.551-.548a.657.657 0 0 0-.927.928l.548.548a1.95 1.95 0 0 0-.181.686l-.753.201a.657.657 0 1 0 .34 1.269l.742-.202a1.786 1.786 0 0 0 .508.508l-.199.744a.654.654 0 1 0 1.265.342l.203-.75a1.96 1.96 0 0 0 .688-.184l.549.549a.654.654 0 0 0 .927-.003.654.654 0 0 0 0-.926l-.551-.551c.106-.216.168-.449.184-.688l.754-.199a.658.658 0 0 0-.344-1.27zm-1.899 1.779a.66.66 0 0 1-.93 0 .66.66 0 0 1 0-.927.656.656 0 1 1 .93.927zM32 11c0-3.859-3.141-7-7-7-.332 0-.66.023-.987.07C22.146 1.526 19.199 0 16 0S9.855 1.526 7.987 4.07A6.918 6.918 0 0 0 7 4c-3.859 0-7 3.141-7 7s3.141 7 7 7c.856 0 1.693-.156 2.482-.458A9.906 9.906 0 0 0 16 20a9.9 9.9 0 0 0 6.518-2.458A6.926 6.926 0 0 0 25 18c3.859 0 7-3.141 7-7zm-9.871 4.083C20.662 16.851 18.477 18 16 18s-4.662-1.148-6.129-2.917A4.968 4.968 0 0 1 7 16c-2.762 0-5-2.238-5-5s2.238-5 5-5c.676 0 1.316.138 1.902.38C10.229 3.792 12.893 2 16 2s5.771 1.792 7.096 4.38A4.983 4.983 0 0 1 25 6c2.762 0 5 2.238 5 5s-2.238 5-5 5a4.97 4.97 0 0 1-2.871-.917z"/></symbol><symbol viewBox="0 0 32 32" id="sun"><path d="M16 9c-3.859 0-7 3.141-7 7s3.141 7 7 7 7-3.141 7-7-3.141-7-7-7zm0 12c-2.762 0-5-2.238-5-5s2.238-5 5-5 5 2.238 5 5-2.238 5-5 5zm0-14a1 1 0 0 0 1-1V4a1 1 0 0 0-2 0v2a1 1 0 0 0 1 1zm0 18a1 1 0 0 0-1 1v2a1 1 0 0 0 2 0v-2a1 1 0 0 0-1-1zm7.777-15.365l1.414-1.414a.999.999 0 1 0-1.414-1.414l-1.414 1.414a.999.999 0 1 0 1.414 1.414zM8.223 22.365l-1.414 1.414a.999.999 0 1 0 1.414 1.414l1.414-1.414a.999.999 0 1 0-1.414-1.414zM7 16a1 1 0 0 0-1-1H4a1 1 0 0 0 0 2h2a1 1 0 0 0 1-1zm21-1h-2a1 1 0 0 0 0 2h2a1 1 0 0 0 0-2zM8.221 9.635a.999.999 0 1 0 1.414-1.414L8.221 6.807a.999.999 0 1 0-1.414 1.414l1.414 1.414zm15.558 12.728a.999.999 0 1 0-1.414 1.414l1.414 1.414a.999.999 0 1 0 1.414-1.414l-1.414-1.414z"/></symbol><symbol viewBox="0 0 32 32" id="trend-down"><path class="bgpath1" d="M17.5 14.5a.579.579 0 0 1-.156.375l-4.984 4.984c-.109.094-.234.141-.359.141s-.25-.047-.359-.141l-5-5c-.141-.156-.187-.359-.109-.547s.266-.313.469-.313h3v-5.5c0-.281.219-.5.5-.5h3c.281 0 .5.219.5.5v5.5h3c.281 0 .5.219.5.5zm-5.5-9c-4.688 0-8.5 3.813-8.5 8.5s3.813 8.5 8.5 8.5 8.5-3.813 8.5-8.5-3.813-8.5-8.5-8.5zM24 14c0 6.625-5.375 12-12 12S0 20.625 0 14 5.375 2 12 2s12 5.375 12 12z"/></symbol><symbol viewBox="0 0 32 32" id="trend-none"><path d="M12 5.5c-4.7 0-8.5 3.8-8.5 8.5s3.8 8.5 8.5 8.5 8.5-3.8 8.5-8.5-3.8-8.5-8.5-8.5zM24 14c0 6.6-5.4 12-12 12S0 20.6 0 14 5.4 2 12 2s12 5.4 12 12z"/></symbol><symbol viewBox="0 0 32 32" id="trend-up"><path class="bipath1" d="M17.469 13.687A.513.513 0 0 1 17 14h-3v5.5c0 .281-.219.5-.5.5h-3a.494.494 0 0 1-.5-.5V14H7a.494.494 0 0 1-.5-.5c0-.141.063-.266.156-.375l4.984-4.984c.109-.094.234-.141.359-.141s.25.047.359.141l5 5a.51.51 0 0 1 .109.547zM12 5.5c-4.688 0-8.5 3.813-8.5 8.5s3.813 8.5 8.5 8.5 8.5-3.813 8.5-8.5-3.813-8.5-8.5-8.5zM24 14c0 6.625-5.375 12-12 12S0 20.625 0 14 5.375 2 12 2s12 5.375 12 12z"/></symbol><symbol viewBox="0 0 32 32" id="twitter"><path d="M32 7.075a12.941 12.941 0 0 1-3.769 1.031 6.601 6.601 0 0 0 2.887-3.631 13.21 13.21 0 0 1-4.169 1.594A6.565 6.565 0 0 0 22.155 4a6.563 6.563 0 0 0-6.563 6.563c0 .512.056 1.012.169 1.494A18.635 18.635 0 0 1 2.23 5.195a6.56 6.56 0 0 0-.887 3.3 6.557 6.557 0 0 0 2.919 5.463 6.565 6.565 0 0 1-2.975-.819v.081a6.565 6.565 0 0 0 5.269 6.437 6.574 6.574 0 0 1-2.968.112 6.588 6.588 0 0 0 6.131 4.563 13.17 13.17 0 0 1-9.725 2.719 18.568 18.568 0 0 0 10.069 2.95c12.075 0 18.681-10.006 18.681-18.681 0-.287-.006-.569-.019-.85A13.216 13.216 0 0 0 32 7.076z"/></symbol><symbol viewBox="0 0 32 32" id="up"><path d="M22.086 20.914l2.829-2.829-8.914-8.914-8.914 8.914 2.828 2.828 6.086-6.086z"/></symbol><symbol viewBox="0 0 32 32" id="user-new"><path class="blpath1" d="M12 23c0-4.726 2.996-8.765 7.189-10.319C19.698 11.539 20 10.27 20 9c0-4.971 0-9-6-9S8 4.029 8 9c0 3.096 1.797 6.191 4 7.432v1.649c-6.784.555-12 3.888-12 7.918h12.416a10.962 10.962 0 0 1-.416-3z"/><path class="blpath2" d="M23 14c-4.971 0-9 4.029-9 9s4.029 9 9 9 9-4.029 9-9-4.029-9-9-9zm5 10h-4v4h-2v-4h-4v-2h4v-4h2v4h4v2z"/></symbol><symbol viewBox="0 0 32 32" id="videocam"><path d="M21 14.5V11c0-.6-.5-1-1-1H8c-.6 0-1 .4-1 1v10c0 .5.4 1 1 1h12c.5 0 1-.5 1-1v-3.5l4 4v-11l-4 4z"/></symbol></svg>